<svg width="120" height="62" viewBox="0 0 120 62" fill="none" xmlns="http://www.w3.org/2000/svg">
<g clip-path="url(#clip0_1_586)">
<path d="M26 31C26 35.9706 21.9706 40 17 40C12.0294 40 8 35.9706 8 31C8 26.0294 12.0294 22 17 22C21.9706 22 26 26.0294 26 31Z" fill="#14F1FF"/>
<path d="M66 31C66 35.9706 61.9706 40 57 40C52.0294 40 48 35.9706 48 31C48 26.0294 52.0294 22 57 22C61.9706 22 66 26.0294 66 31Z" fill="#14F1FF"/>
<g filter="url(#filter0_bi_1_586)">
<path d="M63.8853 45.5C63.407 45.7761 63.2417 46.3888 63.5336 46.8577C66.8672 52.2113 71.8091 56.3862 77.6639 58.7757C83.8278 61.2914 90.6533 61.6853 97.0657 59.8954C103.478 58.1055 109.113 54.2335 113.083 48.8891C117.053 43.5448 119.132 37.0317 118.994 30.3757C118.855 23.7196 116.506 17.2987 112.317 12.1242C108.129 6.94969 102.338 3.31551 95.8563 1.79398C89.375 0.272463 82.5717 0.950053 76.5179 3.72004C70.7676 6.35114 66.0037 10.7281 62.8958 16.2158C62.6237 16.6964 62.8143 17.3017 63.3036 17.5577L87.3887 30.1571C88.0873 30.5226 88.108 31.515 87.4252 31.9092L63.8853 45.5Z" fill="url(#paint0_linear_1_586)" fill-opacity="0.2"/>
</g>
</g>
<defs>
<filter id="filter0_bi_1_586" x="42.7712" y="-19" width="96.2288" height="100" filterUnits="userSpaceOnUse" color-interpolation-filters="sRGB">
<feFlood flood-opacity="0" result="BackgroundImageFix"/>
<feGaussianBlur in="BackgroundImageFix" stdDeviation="10"/>
<feComposite in2="SourceAlpha" operator="in" result="effect1_backgroundBlur_1_586"/>
<feBlend mode="normal" in="SourceGraphic" in2="effect1_backgroundBlur_1_586" result="shape"/>
<feColorMatrix in="SourceAlpha" type="matrix" values="0 0 0 0 0 0 0 0 0 0 0 0 0 0 0 0 0 0 127 0" result="hardAlpha"/>
<feOffset dy="4"/>
<feGaussianBlur stdDeviation="9"/>
<feComposite in2="hardAlpha" operator="arithmetic" k2="-1" k3="1"/>
<feColorMatrix type="matrix" values="0 0 0 0 1 0 0 0 0 1 0 0 0 0 1 0 0 0 0.25 0"/>
<feBlend mode="normal" in2="shape" result="effect2_innerShadow_1_586"/>
</filter>
<linearGradient id="paint0_linear_1_586" x1="82.4419" y1="1" x2="82.9256" y2="64.1495" gradientUnits="userSpaceOnUse">
<stop stop-color="#4C226E"/>
<stop offset="1" stop-color="#14F1FF"/>
</linearGradient>
<clipPath id="clip0_1_586">
<rect width="120" height="62" fill="white"/>
</clipPath>
</defs>
</svg>
